<svg xmlns="http://www.w3.org/2000/svg" aria-label="Aerantis Holdings" viewBox="0 0 1248 1248"><style>path{fill:#0b0b0c}@media (prefers-color-scheme:dark){path{fill:#c9a24a}}</style><g fill="currentColor"><path d="M490.2 118.2c-1.1 2.9-5.9 15-10.6 26.8-4.6 11.8-9.6 24.4-10.9 28-2.8 7.4-15.8 40.2-18.7 47-1 2.5-3 7.4-4.4 11-2.9 7.7-8.9 22.6-11.6 29-1 2.5-5.8 14.4-10.5 26.5-17.4 44.1-41.8 105.2-45.7 114.3-2.2 5.1-5 12.3-6.3 16-2.6 7.5-13 34-16.8 42.9-1.4 3.2-3.5 8.5-4.7 11.8-2.3 6.3-7.5 19.5-9 23-1 2.5-6.3 15.8-18.5 46.5-5.2 12.9-13.3 32.9-18 44.5-4.8 11.5-8.9 21.9-9.2 23s-2.7 7.2-5.4 13.5c-4.4 10.7-9.9 24.4-39 98.5-11 27.8-20.1 50.7-26.4 66-1.8 4.4-6.3 15.6-10 25-3.6 9.3-7.5 19.2-8.6 22-12.6 31-17.4 42.9-19.3 48-3.3 8.6-11.9 30.1-17.6 43.5-2.6 6.3-6.7 16.2-9 22-2.4 5.8-4.8 11.8-5.6 13.5-3.5 8.3-11.4 28.4-11.4 29.1 0 1.7-13.8 29.6-18.5 37.4-11.6 19.1-15.8 24.3-33 41.5-12.5 12.6-27.3 23.5-39.7 29.3-11.7 5.5-34.2 11.2-44.2 11.2-2.8 0-5.6.4-6.1.8-.6.4-1 5.9-1.1 12.7l-.1 12H299l-.4-12.3c-.2-6.7-.6-12.5-.9-12.8s-8.6-.8-18.4-1c-25.8-.6-39.1-3.5-51.6-11.1-21.9-13.2-33.2-35.2-34.4-66.8-.6-14.8 1.2-29.8 5.3-44.2 1.4-4.8 3.6-12.7 4.9-17.4 2.5-8.5 11.1-31.8 19.9-53.8 2.5-6.3 4.6-11.8 4.6-12.3 0-.4 1.2-3.3 2.6-6.5 1.5-3.2 4.2-9.9 5.9-14.8 1.8-5 5.6-14.6 8.4-21.5 2.9-6.9 15.7-38.6 28.6-70.5 12.8-31.9 26.8-66.6 31-77 4.3-10.5 8.8-21.7 10-25 3.4-9 9.2-24 12.7-32.5 1.7-4.1 4.7-11.8 6.8-17 7.5-18.9 12.2-30.7 17-42.5 2.6-6.6 8.7-21.9 13.5-34s9.3-23.4 10-25c1.2-2.6 18.7-47 24.5-62 6.4-16.5 16.5-41.8 18.5-46.5 3.1-7.2 27.5-68.8 27.5-69.4 0-.3 1.1-2.9 2.4-5.8s3.6-8.5 5.1-12.3c1.5-3.9 4.4-11.3 6.5-16.5 2-5.2 5.4-14.8 7.5-21.3 3.7-11.5 5-13.5 6.2-10 .7 2.3 4.1 10 5.7 13.3.7 1.4 1.8 4.5 2.6 7 1.4 5 2.3 7.1 7.4 18.3 3.8 8.2 4.2 10.2 2.6 11.2-.5.3-.7 1.2-.4 2 .4.8 1 1.3 1.5 1 1.2-.8 5 8.1 4.3 9.9-.4 1.1-.2 1.5.7 1.1.9-.3 2 1.1 3.2 4.2 1.1 2.7 2.3 5.7 2.7 6.8.5 1.1 1.5 4 2.1 6.5.7 2.5 1.8 5.2 2.6 6.1.7.8 1.3 2.3 1.3 3.2s.4 1.8.9 2.1 1.2 1.8 1.5 3.3c.4 1.6 1.6 4.6 2.6 6.8 5.9 12.7 8 17.7 10.4 24.3 2.3 6.6 5.2 13.9 7.7 19.7 2.5 6 3.9 9.9 3.9 11.1 0 1.1 5.5 13.6 9.1 20.6.5 1 .9 2.3.9 3 0 1.3 4.3 12.8 8.4 22.1.9 2.1 1.6 4.4 1.6 5.2 0 .9.4 2.3.9 3.3 2.4 4.8 7.7 17.7 10.3 25.2 4.3 12.5 4.8 14.4 4.8 17.3 0 1.9.4 2.5 1.5 2.1 1-.4 1.5 0 1.5 1 0 .9.7 2.8 1.6 4.1 1.1 1.7 1.4 3.7 1 6.2q-.6 3.9.3 1.8c.8-1.9.9-1.9 1.6-.2.4.9.5 3 .2 4.5-.7 3.5 1.2 10.2 3 10.2.7 0 3.6-1.6 6.4-3.5s5.7-3.5 6.5-3.5 4.2-1.4 7.6-3.1c7.2-3.5 9-4.3 20.9-9.3 4.7-2 9-3.6 9.5-3.6 1.5 0 16.7-4.9 18.6-6 1-.6 2.5-1 3.5-1 .9 0 2.4-.6 3.2-1.3.9-.7 3.6-1.9 6.1-2.6s12.1-3.8 21.4-6.8c12.4-4 18.6-5.5 23.2-5.6 3.4-.1 6.5-.5 6.9-.9.4-.3-.7-3.7-2.3-7.5-1.6-3.7-4.4-10.6-6.2-15.3s-5.4-13.7-8-20-6.1-15.1-7.8-19.5c-4.6-11.7-12.6-31.9-16.2-40.5-1.7-4.1-4.1-10.2-5.2-13.5s-2.6-7.4-3.3-9c-.7-1.7-3.7-8.9-6.5-16-2.8-7.2-5.8-14.4-6.5-16-.7-1.7-2.5-6.1-4-10-1.5-3.8-3.3-8.3-4-10-.8-1.6-2.6-6.2-4-10-4.7-12.2-5.8-14.9-8.3-20.5-1.3-3-3.9-9.6-5.7-14.5-1.8-5-5.1-13.3-7.2-18.5-2.2-5.2-6.6-16.3-9.8-24.5-12.5-32.3-24.5-62.8-27.4-70-3.6-8.7-7.5-18.6-8.6-21.5-.7-1.9-2.5-6.7-4-10.5-1.5-3.9-3.3-8.6-4-10.5-.8-1.9-3.9-9.6-7-17s-6.1-15.4-6.7-17.8l-1-4.2h-60.6z"/><path d="M1245.7 418.8c-2 3.7-13 14.8-20.2 20.5-27.2 21.2-47.5 33.3-76 45.2-6 2.5-11.9 5-13 5.5s-4.5 1.6-7.5 2.6c-3 .9-6 2-6.5 2.5-.9.7-12.7 4.7-20 6.8-1.6.5-7.9 2.5-14 4.4-11.7 3.8-22.9 6.8-36 9.8-4.4.9-12 2.7-17 3.8-8.2 2-23.7 4.9-37.5 7.1-3 .5-9.3 1.6-14 2.5-12.1 2.3-25.2 4.4-34.5 5.5-8.2 1-25.9 3.4-37.5 5.1-11.5 1.7-29.2 3.8-40 4.9-18.7 1.9-40.6 4.7-85 11-13 1.9-62.6 11.3-68.5 13-1.6.5-5 1.4-7.5 2-2.5.7-7.2 2.1-10.5 3.1s-10.7 3.3-16.5 5c-10.1 2.9-15.9 4.9-30 10.2-3.6 1.4-9.6 3.7-13.5 5.1-3.8 1.4-7.9 3-9 3.5s-4.2 1.7-7 2.6c-2.7 1-8.8 3.4-13.5 5.5s-10.7 4.8-13.5 6c-14.9 6.6-51.1 25.4-73.5 38.2-14.8 8.5-45 28.1-54.8 35.6-2 1.6-7.5 5.7-12.2 9.3-18.8 14.2-41.1 32.6-52.4 43.4-1.2 1.1-5.5 4.9-9.5 8.5-12.5 10.9-40.6 40.5-57.6 60.5-7.5 8.9-25.2 32-34.5 45.1-9.9 13.9-29.5 44.9-29.5 46.5 0 2.6 2.4 1.8 5.6-1.7 20.2-22.4 56.1-57.3 71.9-70 1.9-1.6 6.9-5.8 11-9.4s9.3-7.9 11.5-9.5 4.5-3.3 5-3.7c.6-.4 3.3-2.7 6.2-5.2 2.8-2.4 7.3-5.9 10-7.7 2.6-1.8 6.8-4.9 9.3-6.9 7.4-6.2 13.1-10.4 20.5-15.1 3.9-2.5 7.7-5.2 8.5-6.1.9-.8 3.2-2.3 5-3.3 1.9-1 6-3.5 9-5.5 5.7-3.8 12.1-7.8 29.5-18.3 10.4-6.3 55.5-29.3 71-36.4 5-2.2 12.6-5.4 17-7.1 4.4-1.6 13-4.8 19-7.1 6.1-2.3 13.5-5.1 16.5-6.2s6.4-2.5 7.5-3c2.4-1 36.9-11 44.5-12.9 1.9-.5 5.3-1.3 7.5-1.9 2.2-.5 6.9-1.5 10.5-2.1s13.3-2.4 21.5-4c19.2-3.7 40.5-6.6 71.5-9.5 8.5-.8 25-2.4 36.5-3.5 11.6-1.2 28.9-2.5 38.5-3 20.9-1.1 29.2-1.7 51-3.5 9.1-.8 19.2-1.7 22.5-2s10.3-.9 15.5-1.5c5.2-.5 16.3-1.6 24.6-2.4 22.9-2.3 36-4.1 57.9-8 44.7-7.9 65.6-13.7 100-27.8 7.3-3 22.3-10.6 28-14.3 2.8-1.7 7.1-4.4 9.8-5.9 15.5-8.8 44.1-35.1 56.5-51.9 4.9-6.5 14.2-20.4 14.2-21 0-.3 1.8-3.4 3.9-6.9 7.6-12.5 15.9-30.5 21-45.3 5-14.4 5.2-15.2 4.9-24.5l-.3-9.5z"/><path d="M1079 659c-4.8 2.5-19.1 7.4-37 12.7-3 .9-6.6 2-8 2.4-1.4.5-8.6 2-16 3.4s-15.3 3-17.5 3.5c-8.8 2-23.7 4.4-35 5.6-2.2.3-9.4 1.1-16 1.9s-19.2 2.2-28 3c-51 4.9-54.8 5.3-95 8-12.1.8-27.8 1.9-35 2.5-7.1.5-19.5 1.4-27.5 2-8 .5-17.4 1.5-21 2s-14.1 1.7-23.5 2.5c-28.9 2.7-42.8 4.8-75.5 11.9-18.2 4-42.2 10.8-55 15.7-3 1.2-8.2 3.2-11.5 4.4-3.3 1.3-9.8 3.8-14.5 5.6-4.7 1.7-8.9 3.6-9.5 4.1-.5.4-1.5.8-2.2.8-1.7 0-28.8 12.6-44.8 20.8-18.3 9.4-34.9 19.4-59 35.7-26.8 18-35.1 24.1-35.9 26-1 2.6 2.4 1.7 12.3-3.4 5.3-2.7 13.2-6.1 17.6-7.5 4.4-1.5 8.9-3.1 10-3.5 1.1-.5 4.7-1.6 8-2.5s11.9-3.2 19-5.1c20-5.4 23.9-6.4 38.5-9.6 2.5-.6 6.1-1.4 8-1.9 3.2-.8 13.8-2.7 27-5 3-.5 10.7-1.6 17-2.5 6.3-.8 16.7-2.1 23-2.9 19.3-2.5 36.1-3.5 67.6-4.1 19.4-.4 30.3-.3 30.5.4.6 1.4 63.5 2.5 96.1 1.6 15.7-.4 27.5-1.1 27.2-1.6s-12.1-1-26.2-1.1l-25.7-.1 30.5-.8c16.8-.4 36.1-1.3 43-1.8 6.9-.6 15-1.1 18.1-1.1 6.3 0 34.1-3.3 45.7-5.4 4.2-.8 12-2.2 17.2-3.1 41.8-7.4 87.2-27.7 116.4-52 18.8-15.6 30.7-28.4 45.9-49.5 2.6-3.6 5.7-7.7 6.8-9.2 2-2.4 2.1-5.9.2-5.7-.4 0-3.3 1.3-6.3 2.9M729.3 784.7c-6.2.2-16.4.2-22.5 0-6.2-.1-1.2-.3 11.2-.3s17.4.2 11.3.3m-56.6 44.2c-.9 1-.7 1.7 1 3 2.1 1.8 5.9 8.5 7.4 13.1.4 1.4 2.1 6.2 3.8 10.8s3.8 10.4 4.6 13c.9 2.6 1.9 5.6 2.4 6.7s2.1 4.6 3.5 7.7 2.6 6.1 2.6 6.6c0 .6 2.1 6.1 4.6 12.4 2.5 6.2 5.4 13.8 6.4 16.8s2.8 7.7 4 10.5c2.3 5.2 5.5 13.5 9.5 24.5 1.3 3.6 3.3 9 4.5 12s3 8.2 4 11.5 3.2 9.7 4.8 14.3c6.5 18.2 10.3 38.2 10.3 54.1 0 20.2-3.7 33.2-11.9 42.3-12 13.2-25.7 18.3-53.2 19.6-8.5.5-19 .7-23.2.5-6.8-.2-7.9 0-8.8 1.7-.8 1.5-.7 2.6.6 4.4 1.2 1.9 1.5 4.6 1.4 10.3-.1 4.3-.2 8.2-.1 8.8.1.7 64.3 1 190.6 1h190.6l-.3-12.5-.3-12.5-13-1.2c-13.3-1.2-15-1.5-29.4-5.2-13-3.3-28.5-11.6-43.3-23.3-2.5-2-22-24.1-22.7-25.8-.3-.8-2.2-4-4.2-7-8.9-13.6-20.5-38.2-30.7-65-1.2-3-5.5-14.1-9.6-24.5-4-10.5-10.4-26.7-14-36-7-17.9-11.8-30.3-23.5-60.5-10-25.8-13.2-33-14.5-33.1-.6 0-35.2-.1-76.9-.2-63-.2-76.1 0-77 1.2"/></g></svg>